<svg width="45" height="45" viewBox="0 0 45 45" fill="none" xmlns="http://www.w3.org/2000/svg">
<path d="M22.4925 6.20929C21.8974 6.1349 19.9447 6.20929 19.331 6.20929C10.3299 6.20929 3.03979 13.4994 3.03979 22.5005C3.03979 31.5016 10.3299 38.7917 19.331 38.7917C19.9447 38.7917 21.8974 38.8661 22.4925 38.7917" fill="#C6C2D8"/>
<path fill-rule="evenodd" clip-rule="evenodd" d="M20.9147 5.90246C21.5464 5.89327 22.2059 5.89232 22.5272 5.93248L22.458 6.48609C22.1841 6.45186 21.5697 6.45091 20.9228 6.46032C20.6445 6.46436 20.362 6.47028 20.1066 6.47562C19.7832 6.48239 19.5034 6.48824 19.331 6.48824C10.484 6.48824 3.31878 13.6535 3.31878 22.5005C3.31878 31.3475 10.484 38.5127 19.331 38.5127C19.5034 38.5127 19.7832 38.5186 20.1067 38.5253C20.362 38.5307 20.6445 38.5366 20.9228 38.5406C21.5697 38.5501 22.1841 38.5491 22.458 38.5149L22.5272 39.0685C22.2059 39.1086 21.5464 39.1077 20.9147 39.0985C20.6252 39.0943 20.339 39.0883 20.0838 39.0829C19.7681 39.0763 19.4998 39.0706 19.331 39.0706C10.1759 39.0706 2.76086 31.6556 2.76086 22.5005C2.76086 13.3453 10.1759 5.93032 19.331 5.93032C19.4998 5.93032 19.7681 5.92468 20.0837 5.91805C20.339 5.91268 20.6252 5.90667 20.9147 5.90246Z" fill="#545388"/>
<path fill-rule="evenodd" clip-rule="evenodd" d="M3.87671 17.4606H6.88947V18.2045H3.87671V17.4606Z" fill="#545388"/>
<path fill-rule="evenodd" clip-rule="evenodd" d="M3.03979 22.1285H6.20133V22.8724H3.03979V22.1285Z" fill="#545388"/>
<path fill-rule="evenodd" clip-rule="evenodd" d="M3.67212 26.7964H6.83365V27.5403H3.67212V26.7964Z" fill="#545388"/>
<path fill-rule="evenodd" clip-rule="evenodd" d="M5.58765 30.8692H8.74918V31.6131H5.58765V30.8692Z" fill="#545388"/>
<path fill-rule="evenodd" clip-rule="evenodd" d="M11.1854 36.1323H14.347V36.8762H11.1854V36.1323Z" fill="#545388"/>
<path fill-rule="evenodd" clip-rule="evenodd" d="M8.07971 33.8076H11.2412V34.5515H8.07971V33.8076Z" fill="#545388"/>
<path fill-rule="evenodd" clip-rule="evenodd" d="M5.51331 13.3878H8.67484V14.1317H5.51331V13.3878Z" fill="#545388"/>
<path fill-rule="evenodd" clip-rule="evenodd" d="M11.1111 8.1062H14.2726V8.85009H11.1111V8.1062Z" fill="#545388"/>
<path fill-rule="evenodd" clip-rule="evenodd" d="M7.98669 10.4495H11.1482V11.1934H7.98669V10.4495Z" fill="#545388"/>
<path d="M36.4064 31.0936C41.1525 23.4133 38.7739 13.3397 31.0936 8.59362C23.4133 3.8475 13.3397 6.2261 8.59361 13.9064C3.84749 21.5867 6.2261 31.6603 13.9064 36.4064C21.5867 41.1525 31.6603 38.7739 36.4064 31.0936Z" fill="white"/>
<path d="M22.4925 6.43244C31.3448 6.43244 38.5606 13.6296 38.5606 22.5005C38.5606 31.3714 31.3634 38.5685 22.4925 38.5685C13.6216 38.5685 6.44309 31.3528 6.44309 22.5005C6.44309 13.6482 13.6402 6.43244 22.4925 6.43244ZM22.4925 5.87453C13.3055 5.87453 5.86658 13.3134 5.86658 22.5005C5.86658 31.6875 13.3055 39.1264 22.4925 39.1264C31.6796 39.1264 39.1185 31.6875 39.1185 22.5005C39.1185 13.3134 31.6796 5.87453 22.4925 5.87453Z" fill="#545388"/>
<path d="M22.4926 8.55253C30.1918 8.55253 36.4405 14.8012 36.4405 22.5005C36.4405 30.1997 30.1918 36.4484 22.4926 36.4484C14.7933 36.4484 8.54461 30.1997 8.54461 22.5005C8.54461 14.8012 14.8119 8.55253 22.4926 8.55253ZM22.4926 7.99461C14.4771 7.99461 7.98669 14.4851 7.98669 22.5005C7.98669 30.5159 14.4771 37.0063 22.4926 37.0063C30.508 37.0063 36.9984 30.5159 36.9984 22.5005C36.9984 14.4851 30.508 7.99461 22.4926 7.99461Z" fill="#545388"/>
<path fill-rule="evenodd" clip-rule="evenodd" d="M14.8304 12.7759L30.3034 13.6826V17.9918L25.2449 17.8058V22.8352H24.687V17.227L29.7454 17.413V14.2088L15.3884 13.3674V16.9125L21.0791 17.1171V22.9654H20.5212V17.6553L14.8304 17.4508V12.7759Z" fill="#545388"/>
<path fill-rule="evenodd" clip-rule="evenodd" d="M25.2636 21.645V24.7507C25.2636 27.8199 22.616 30.3799 19.3058 30.5156C16.2664 30.651 13.623 28.7329 13.0329 26.0188L12.9758 25.7561L18.0106 24.4657V24.8251C18.0106 25.4304 18.55 25.9567 19.2692 25.941C19.995 25.9253 20.5213 25.3962 20.5213 24.7879V21.7194H21.0792V24.7879C21.0792 25.7418 20.2665 26.4774 19.2813 26.4988C18.4143 26.5177 17.6657 25.9558 17.4911 25.1748L13.6427 26.1611C14.2771 28.4446 16.5832 30.0786 19.2814 29.9583L19.2824 29.9582C22.3323 29.8334 24.7057 27.4838 24.7057 24.7507V21.645H25.2636Z" fill="#545388"/>
<path d="M27.2162 25.2529V20.027L32.1445 20.12V16.4006L17.6572 15.7869V19.8411L23.1806 19.9341V25.4388" fill="#545388"/>
<path d="M23.1807 24.2114V27.2242C23.1807 27.9867 22.5298 28.6376 21.7115 28.6562C20.8746 28.6934 20.2051 28.0797 20.2051 27.2986L15.9092 28.4702C16.4671 30.9994 18.8847 32.7662 21.7115 32.5988C24.7987 32.4128 27.2349 29.958 27.2349 27.1126V24.0627" fill="#545388"/>
</svg>
